<?xml version="1.0" encoding="UTF-8"?>
<svg width="424.77" height="375.73" fill-rule="evenodd" viewBox="0 0 119.8803 106.0405" xmlns="http://www.w3.org/2000/svg">
 <defs>
  <linearGradient id="a" x1="208.56" x2="88.677" gradientUnits="userSpaceOnUse">
   <stop stop-color="#2a2a29" offset="0"/>
   <stop stop-color="#3c3c3b" offset=".522"/>
   <stop stop-color="#9d9e9e" offset=".749"/>
   <stop stop-color="#fefefe" offset="1"/>
  </linearGradient>
 </defs>
 <path transform="translate(-88.677 -53.33)" d="m205.389,75.0328 .113-1.1656-.64-.6768 .376-1.5416-.714-.752v-2.068l-1.918-3.1208-5.527-5.7904-.804-2.3986 .735-1.47-1.102-2.7195h-107.2313l.0436,106.0405h119.8367v-91.542l-1.803,12.6221-.832-4.5771z" fill="url(#a)"/>
 <path transform="translate(-88.677 -53.33)" d="m173.008,60.6608-1.732.433-1.472.1732-1.473-.7794-.346.6062-4.676,1.6454-1.906.2598-6.495,6.495-1.732,3.3774-.952,2.4248-.693,3.897-.52,1.4722-.519,2.2516 .952-1.0392 1.213,1.6454 1.039.6062 .953-1.9918-.087,2.0784 .779-.1732 .693.866 1.126-.1732-.953,1.2124 1.559.6928-1.818.9526 .606,2.165-.52,1.4722-1.126,1.6454-3.637,2.2516-.866,2.5114 .173,1.3856 .953-3.031 .346.433 1.126-1.732-.866,2.3382-1.732,3.0312-.519,2.771 .259,1.212 .433-.779 .953-.087-1.039-.952 .26-1.213 .692.174v-2.1654l.433,1.3854 1.04-1.039h2.165l.952.2598 .433.5192 1.299-.5192h1.819l1.126.4332 .952.606 .433-1.5588 .78-.433 .173-.866-.953-1.0392-1.212-.433 1.385-.6062 1.04.6928 .779,1.2124 .433,1.299 1.992,2.165 2.251,1.212 2.165.347 1.992-1.126 1.732,1.212 2.338-.692 .693-1.906 1.386-2.5976 2.858-1.3856 5.802-1.0392 4.33-.1732 .779-1.3856-1.299-1.2124-1.126-1.4722 1.559-1.5588-.519-1.3856-1.126-.0866-1.992-1.299 1.039-1.732-.779-1.299 .866-1.299-.953-.9526 1.039-.2598-.606-1.2124-1.126-.9526-1.125.866-.087-1.4722 1.039-1.6454-.606-1.299-.779-.433-.78.866-1.385-1.2124 .866-1.3856-1.213-.5196 .866-.6062-1.645-1.6454 2.078.5196-.693-1.1258 1.299.3464-1.818-1.732 1.992.5196-2.339-2.3382 1.732.0866-1.558-1.732 1.732.2598-2.675-2.2705-2.088-1.0203-2.165.2598-1.473-1.3856-2.078.3464z" fill="#fff"/>
 <path transform="translate(-88.677 -53.33)" d="m151.039,86.5712-.772-.8301-.497-.2767-.304.8301 .276.6641-.276.7195 .138.332-.027.7471 .193.6088 .303-.3874 .856-.5534 1.049-.2767 1.352.332 1.049.083 1.021.3321-.552-.9962-.828-.2767-.469-.4981-1.214-.2767z" fill="#fff"/>
 <path d="m65.7023,36.3685-.6624-.7194h-.8281-1.6837l-.5244.3874-.5245.3597 .1104.3321 .6073-.2768 1.3938-.2628 1.0351.2352c0,0 1.0765-.0277 1.0765-.0554z" fill="#fff"/>
 <path transform="translate(-88.677 -53.33)" d="m152.281,93.1292 .663-.0553 .911-.3874-.856.0553-.607-.3044-.249-.498 .194-.6918-.635-.4981-.221.7748 .055.7471 .249.5534z" fill="#fff"/>
 <path d="m79.1723,26.3794 2.5118-1.2452-2.9258-.0554-4.7751.3874-.4693.9962-1.9873,1.8263-.8004.9408-.8833.8578 .276,1.0238-.1104,1.4665 1.3249.6641 2.0701.6365 .8005.9684 .5244.2491 .3037.8578 .7728,2.2413 1.9873,1.7156 1.7114.249 2.0701-.5534-2.4566.083c-.138,0-1.7941-.9408-1.7941-.9408l-1.1041-1.2728-.8004-1.2729h.7728l.6625-.0277 .138.4428 1.6009.3597 2.0977.0277 1.877-.4428 .5796-.2213 .5521-.7471-.5797-.1384-.9385.5257-1.5733.3044-1.5457.0554-1.0764-.3321 .414-.4427-.6901-.2767-.138-.6088 .7729-.8855-.0552.6641 .414.6088 .6901.4981 1.4353.1383 .9108-.332 .414-.3874 .7177.0277 .276-.4151 .8005.3044 1.2421.083-.1381-.5534 .7729.1383 1.1869-.3874 .7452.1384 .4417-.9131 1.4629-.3598 1.2973.1107 .2208-1.0791-.8557-.7748 .1932-.6641-.8832-.4704-.2761-.7748 .3037-.8301h-1.9874l-.966-.4151-.6073.166-.7452-.498-.5245.2213-.6072-.5534-.9661.083-.414-.2767-.8005-.1383-.3588-.2768-.9108-.0553-.2761-.2214c0,0-1.3249-.249-1.3249-.2213z"/>
 <path transform="translate(-88.677 -53.33)" d="m172.928,81.8672-1.242-.5258-1.905.0554-.469-.7195-1.077-.332 .359.3874-1.214.4981-.414.6917 .91.3321-1.38.332-.634.7471-1.298.4151-.386.6641-.856,1.1345v.4427l.884-.1383 .883-1.4942 .055.9408 .856-.1937 .966-.4428 1.407.1661 2.181-.1384 1.187.3321 1.49.332 .801.4427 .8.0277 1.408-.166-.359-.5258-.911-.415-2.125-.2214-.359-.7748-.8-.8578-1.905-.415 2.098.1107 1.684.3597 1.987.4427 1.214.3321 1.408.332-.966-.8578-.883-.3044-1.215-.332-1.214-.2214z" fill="#fff"/>
 <path transform="translate(-88.677 -53.33)" d="m165.751,86.0732 1.297-.1661 1.629-.083 1.656-.0277 .331-.2767-.497-.249-.248-.1937-2.622-.1107-.801.6088z" fill="#fff"/>
 <path transform="translate(-88.677 -53.33)" d="m197.191,84.8134 1.53-.6233 1.148-.7912 1.22.024 .861.4315 .454,1.1268 .359,1.4145 .191,1.1988 .311,2.2296 .263.8391-.311.8871 .192,1.1028-.263.3836-.048,1.1268-.144.3356-.43.983-.287.8151-1.483.3117-.885,1.1268-1.267.935-.55.4795-1.65-.0479-.527-.5275-.406-.0959-.072-.5274-.646-.7193 .192-.7192 .574.4076 .287-1.1508 1.028-.0719-.239-1.0549 .693-.024 .622-.959-.622-.8391 .67-.4075 .215.4794 .479.2158 .095-.3836 .431.048-.574-.6713 .311-.6473 .765.6473 .191.7432 .407.4076-.335,1.4864 .574-.8151 .096-.7672-.455-.5754 .096-.5514 .55-.3357 .239.959 .096-.959-.191-.7192 .358-.7432-.861.0239-.119-.8151-.981.024-.837-.3836 .431-.7432 .502-.1439 .096-.8631 .55-.5034 1.052.5754 .096.935 .813,1.1028 .143.6473 .215.5514-.024,1.3666-.43.7672 .048.5993-.742,1.3666 .957-1.2227v-.6953l.431-.6713-.072-1.6542 .024-1.0309-.455-.5514v-1.5104l.239-1.2467-.358-1.7262-.455.1439-.358-.4555-.742.0239-.526.3596-.956.6713-.814,1.0549-.597.4076-.12.8391-.694-.024-.239.7672-.741-.935-.646.6953-.454-.4076 .143-.8391 .837-.8152z" fill="#fff"/>
 <path transform="translate(-88.677 -53.33)" d="m194.704,92.1736-.502.2877 .047.3356 .407.1199-.12,1.2227 .215.3117 .455-.2398 .096-.7911 .741-.4316 .239-.4794-.096-.8392-.55-.4075 .192-.7912-.455-1.1747-.598.0479-.43.6953 .143,1.1987z" fill="#fff"/>
 <path transform="translate(-88.677 -53.33)" d="m158.824,103.662-.651.309 .686.48 .686.789 1.234.343 .686.96 1.338.344 1.166,1.028 1.715.755 .515-.755 .068,1.407 1.269.96 .927.377 .411-.548 .618.411-.343,1.612 .548.721 1.372-.858 1.132-1.166 1.132.069 .446-1.029 .583-.961-1.303-.308 .926-.755-1.749-.515-2.024.549-1.647-1.818-.96-1.269-.617-.171-.378-1.509-1.029-.995-.411-1.269-1.063-1.0979-.035,1.9209-.343,1.406-1.097.892-2.058.24z" fill="#fff"/>
 <path d="m73.4583,55.5865-.8188-.2492 .1068-.4984-.8188-.9256 .3204,1.2104-1.5308-.178-.7832-.4984-.6052.0356-.3916-.6052-.2136.4628-1.8156.6764-1.2104-.2492-1.1036.7832-.356.4628-.3204.534 .1068.4984 .7476-1.0324 .2136.6052 1.1748.3204 .9612-.8188 1.5664-.6586 1.602.1246 1.3172.1424 .8544.356c0,0 .9612-.4628.9968-.4984z" fill="#fff"/>
 <path transform="translate(-88.677 -53.33)" d="m156.937,113.366-.569,1.032-.214-.498 .285-.534-.392-.356-.463-.356-.747-.036-.534.321-.427.997 .106.925 .534.677 .855-.036 .071-.392-.783-.391 .178-1.139 .142.498 .57.605 .747.641 .25-.534 .605.071 .356-.676 1.353.142 .801-.534 .373-.142 .499-.748 .819.071 .498.89 .676.392 .428-1.353 .213,1.068 .321-.498 .213.356 .783-.534 .89.178 .072-.605-1.78-.606-2.172-.213-2.314.213-1.566.463z" fill="#fff"/>
 <path d="m79.5813,60.4285-1.4952-1.2816-.3204.9256-.89.89 1.3172.6408 .9968.1068c0,0 .3204-1.246.3916-1.2816z" fill="#fff"/>
 <path transform="translate(-88.677 -53.33)" d="m164.876,121.127 .214-1.389 .32.748 1.673-.712-1.068,1.104 1.211.356 .676-.784 .926-.035-.606-.783-.249-.819-2.029-.392-1.104.57-1.602-.071 .321,1.388z" fill="#fff"/>
 <path transform="translate(-88.677 -53.33)" d="m151.775,108.346h.427l.321-1.708 .676-.784 .107-.818 .676-.285 .036-.57-1.353-.213-.142,1.424-.712.32-.178,1.566z" fill="#fff"/>
 <path d="m61.1803,50.4825 .3057,1.609 .6688,2.1453 .3439.7278-1.0509-.4405-1.5285-.0383 .3057-2.7199c0,0 .9936-1.245.9553-1.2834z" fill="#fff"/>
 <path transform="translate(-88.677 -53.33)" d="m152.555,117.775 .087-.872 .698-.523 .828-.131-.872-.916 .131-.654-.741-.697 .479-.567-.567-.611 .306-.305-.393-1.133-.479-.218-.567-1.352-.349-.741-2.006.436 1.178-.698-1.875-.436-1.395-.218-1.875.48-2.398.654h-1.526l-1.788-.175-1.613.088-.698.174-1.613.044-1.918.392-1.526,1.482-.741.829 .174.305-.436.305-.567.959 .175.349-.48.436-2.268,2.691-1.176,2.646-.98,1.862-1.078,2.744-.098,1.568-.784.686-1.274,2.548-2.45,3.626-2.058,3.234-2.352,2.45-2.058,1.078-1.078,1.666-1.176,1.078-1.764,2.548-.49.98-3.528,1.568-1.078,1.764v1.176l-1.862,1.274 .588.784-1.764,2.548 1.764-1.372 .294,1.862 2.058-.098 .784-1.176-2.058.294 .49-2.352 1.764-2.744 2.842-1.764 2.744.49 5.096,2.156 5.488.98 4.116-.196 2.254-.784 .784-1.47-3.136,1.47-3.43.294-4.802-.882-3.528-1.372-4.704-1.078 1.666-1.862 .882-3.038 1.176-2.548 1.274-.098-1.568,2.254-.196,2.646-.784,2.352 3.234,1.078 3.626.686-.686-2.744 1.96-1.176 2.45-7.938 2.352-.784-1.96-4.214 3.038.98-1.764-1.862 1.568.098 4.704-3.234-3.724,3.332 3.92-1.764-2.74,2.403 4.896-2.207 1.274-1.176 1.176-1.96-2.94,1.176 3.92-3.724-8.134,3.626 4.9-4.214 3.528-1.274-3.332.196 1.862-.98-3.822.588 3.038-1.47-1.862.098-2.744.49 2.45-1.372 2.842-.686-4.802-3.528 3.92,1.764-1.666-3.038 2.254,2.156-.588-2.744 1.372,1.666 .784,1.274 .784-1.372 .098,1.96 .686.784 .098,1.47 .686.784 .098,2.548 1.176,1.47 .196.98 1.372.686 1.862.196 .294-.98-.882-1.078-1.176.098-.588.588-.196-1.96 .392-1.176 1.274-.392 .98.098-.588-1.96-.98.686 .686-2.45-.686-1.862-2.548-.588 1.47-.49 .196-.882 1.078-.098 .882.686 .686,3.822 .49,2.548 .784-.294-.392,1.176 .588,3.92 .784,1.862 1.764.882 1.372-.686 1.176-.588-.098-.882-.519.234-.075-1.01-.711-.711-.823.113-.897.448 .972-1.196 1.122-.038-.149-1.01-.823-.336 .748-.711-.823-.897 .598-.524-1.309-1.197 1.309-.112-.86-.86 .561-.412-.598-1.683-.262-.935v-1.421l-3.104-.598 2.88-.262-1.272-.785 1.047.074-.972-1.234 1.271.561 .561,1.608 .561,2.17 .561,1.196 .561,1.758 1.496,2.244 1.983.262 1.57-.636 .5-1.6-1.178-.174-.087-.785-.872-.61-.915.261z" fill="#fff"/>
 <path transform="translate(-88.677 -53.33)" d="m139.6,127.199-.477-1.193 .341-1.228-2.251,2.148-.921,1.739-1.875,3.001 1.909-1.671-1.466,2.66 1.773-1.603-.614,2.012 1.774-.852 1.943.443 1.364-.58-.204-2.284 1.568-.375 1.33-.137 .341-1.773-1.5.171-1.228-.785-1.261-.92-.342-.682z" fill="#fff"/>
 <path transform="translate(-88.677 -53.33)" d="m148.57 146.32 11.239-8.21-5.72 1.278-5.249 3.231-3.702 3.365 3.432-4.375 4.375-2.423 4.442-1.278 4.105-2.087-8.816 2.558-7 4.374-2.826 4.644-4.442 6.999z" fill="#fff"/>
 <path transform="translate(-88.677 -53.33)" d="m108.447,155.488 .953-1.775-.823-1.213-1.385-.043-1.126.866 .649-1.905 1.906-1.819 1.818-.52 2.252.044 2.988.779 3.42,1.169 3.941,1.343-2.902.043-3.204-.606 3.378,1.905z" fill="#fff"/>
 <path transform="translate(-88.677 -53.33)" d="m180.124,135.791 9.292-7.073-10.402,9.847-9.709,6.103-6.935,3.606-12.899,10.125 11.651-1.941 8.738-.555-9.57,2.08 11.373-.971 5.964-9.431 2.081,1.248 2.774-4.854 8.044-13.038-3.051,7.351-2.636,8.045 3.329-1.526-3.745,5.687 .555,6.796 20.805-7.629-8.738-.416 8.877-7.489-10.68.97 10.68-6.38h-10.541l11.789-10.402-1.803-1.803-5.132-.139 4.993-2.497 1.942-2.635-.139-5.271-22.33,15.812-.971,2.358-7.213,4.3-5.548,4.438z" fill="#fff"/>
 <path transform="translate(-88.677 -53.33)" d="m197.32 102.5 1.11 3.745-1.248 2.358-6.658 3.329 5.271-5.548z" fill="#fff"/>
 <path transform="translate(-88.677 -53.33)" d="m171.108,131.492 4.577.555 6.797-2.358-3.884,2.635-19.557,9.57 5.964-8.877-.416,3.468z" fill="#fff"/>
</svg>
